<?xml version="1.0" encoding="UTF-8"?>
<svg id="Layer_1" xmlns="http://www.w3.org/2000/svg" version="1.1" viewBox="0 0 5067 5139">
  <!-- Generator: Adobe Illustrator 30.4.0, SVG Export Plug-In . SVG Version: 2.1.4 Build 226)  -->
  <defs>
    <style>
      .st0 {
        fill: #fff;
      }

      .st1 {
        isolation: isolate;
      }

      .st2 {
        fill: #a89cff;
      }

      .st3 {
        fill: #180e44;
      }
    </style>
  </defs>
  <g>
    <path class="st0" d="M3917.9,2012.5c1.8-1.1,3.4-2.5,4.6-4.2,1.3-1.7,2.3-3.5,3-5.6s1.1-4.3,1.1-6.8-.5-5.9-1.6-8.4c-1.1-2.5-2.6-4.7-4.5-6.5-1.9-1.8-4.2-3.2-6.8-4.2-2.6-1-5.5-1.5-8.7-1.5h-27.9v65.8h7.6v-25.1h18.5c.3,0,.7,0,1,0l15,25.2h8.8l-16.1-26.3c2.2-.6,4.2-1.4,6-2.5h0ZM3904.9,2009.7h-20.2v-27.3h20c2,0,3.9.3,5.7,1,1.7.7,3.2,1.6,4.5,2.8s2.3,2.7,3,4.3,1.1,3.5,1.1,5.5-.4,3.9-1.1,5.6c-.7,1.7-1.7,3.1-3,4.3-1.3,1.2-2.8,2.1-4.5,2.8s-3.6,1-5.6,1h0Z"/>
    <path class="st0" d="M3899.3,1944.7c-35.8,0-64.8,29.1-64.8,64.8s29.1,64.8,64.8,64.8,64.8-29.1,64.8-64.8-29.1-64.8-64.8-64.8ZM3953.5,2009.6c0,29.9-24.3,54.2-54.2,54.2s-54.2-24.3-54.2-54.2,24.3-54.2,54.2-54.2,54.2,24.3,54.2,54.2h0Z"/>
  </g>
  <g>
    <path class="st2" d="M3311.4,3050.4c-62.2-183.9-292.8-257.2-606.5-356.8-170-54-182.4-34.1-355.7-98.1-172.3-63.6-340.9-144.6-466.4-282.2-89.2-97.8-127.9-208.8-99.8-339.2,38.8-179.5,215.9-274.1,394.6-245.9,0,0,152.8,15.8,422.1,166.4,4.9,2.8,21.9,12.5,45.1,13.5,19.7.8,35-5.2,41.5-8.1,28.2-12.6,41.6-35.8,45.8-43.9,0,0,15.1-28.4,12.6-65.6-3.3-48.3-68.9-169.7-229.9-256.1-137.2-73.7-295.6-92.8-448.3-69.2-79.7,12.3-164.2,27.5-232.3,73.6-33.8,22.9-60.8,52.2-79.2,88.5-18.1,35.5-27,77.2-67.1,94.6-34.6,15-84.1,12.3-114.4-16.8-30.2-29-28.3-71.7-27.9-79.2,1.4-23.7,10.8-47.2,28.5-67.1,24.5-27.6,55.6-47.4,90.9-62,64.2-26.4,125.3-50,193-67.6,186.1-48.4,381.7-53.2,567.6-1.7,203.1,56.2,387.1,166.3,533.8,315.9,82.8,84.5,175.4,222.6,126.1,341-24,57.5-66.1,102.1-126.2,115.6-139.6,31.3-309.3-101.8-405.9-190.6-46-42.3-137.1-118.9-199.2-72.4-14.4,10.8-25.7,35.2-26.3,57.4-1.3,55.6,23.5,103.2,59.4,145.8,56.4,66.9,129.4,111.6,209.6,145.9,77.1,32.9,154.5,47.5,235.9,65.9,448.7,101.5,758.9,614,551.3,1047.9-152.4,318.5-569.4,382.9-883.1,332.8-70.4-11.2-139.5-26-207.9-46.3-291.4-86.6-555.8-251.9-780-455.1-208-188.4-438.2-430-433.1-730.6,2.2-131.2,71.1-270.7,196.4-324.3,125.4-53.6,245.6,1.3,267.1,11.1,129.3,59.1,188.1,182.6,258.7,331.1,44.2,93,66.2,166.4,72.4,186.2,100.1,321.2,360.3,610.7,658.7,761.6,168,85,422.1,164.5,595.3,57.9,155.7-95.8,236.7-314.7,182.7-474.2h0Z"/>
    <g>
      <g class="st1">
        <g class="st1">
          <path class="st0" d="M1404.4,2835.9c-61.3,0-113.1-10.8-155.2-32.3-42.2-21.5-78.3-52-108.3-91.5l92-103.5c28.9,39.5,58.1,66,87.6,79.6,29.5,13.6,59.8,20.3,91.1,20.3s30.2-2.1,42.9-6.2c12.7-4.1,22.7-10.2,30.1-18.1,7.4-8,11.1-17.5,11.1-28.7s-2.2-16.8-6.6-23.9c-4.4-7.1-10.5-13.3-18.1-18.6-7.7-5.3-16.5-10.2-26.5-14.6-10-4.4-21.1-8.1-33.2-11.1-12.1-2.9-24.3-5.6-36.7-8-34.2-7.1-63.8-16.4-88.9-27.9-25.1-11.5-46-25.3-62.8-41.6-16.8-16.2-29.3-34.8-37.6-55.7-8.3-20.9-12.4-44.7-12.4-71.2,0-37.7,10.8-70.7,32.3-99,21.5-28.3,50-50.4,85.3-66.3,35.4-15.9,73.7-23.9,115-23.9,60.1,0,108.6,9.6,145.5,28.7,36.8,19.2,66.2,45.5,88,79.2l-93.7,91.1c-18.3-23.6-39.1-41.3-62.3-53.1-23.3-11.8-47.6-17.7-73-17.7s-32.1,2.1-45.1,6.2c-13,4.1-22.9,10.2-29.6,18.1-6.8,8-10.2,17.5-10.2,28.7s2.8,17.8,8.4,25.2c5.6,7.4,13.4,13.7,23.4,19,10,5.3,21.5,9.9,34.5,13.7,13,3.8,26.5,6.9,40.7,9.3,32.4,6.5,61.8,15,88,25.6,26.2,10.6,48.8,23.7,67.7,39.4,18.9,15.6,33.5,33.9,43.8,54.8,10.3,20.9,15.5,45,15.5,72.1,0,42.4-10.3,78.7-31,108.8-20.6,30.1-49.2,53.1-85.8,69-36.6,15.9-78.4,23.9-125.6,23.9Z"/>
          <path class="st0" d="M1701.5,2482.2v-124.7h315.7v124.7h-315.7ZM1784.7,2827.1v-588.1h142.4v588.1h-142.4Z"/>
          <path class="st0" d="M2258.7,2835.9c-34.2,0-63.7-7.5-88.4-22.6s-43.8-36.5-57-64.6c-13.3-28-19.9-61.8-19.9-101.3v-290.1h142.4v268.8c0,28.9,6.9,51.4,20.8,67.7,13.8,16.2,33.2,24.3,57.9,24.3s23.6-1.9,33.6-5.7c10-3.8,18.7-9.4,26.1-16.8s13.1-16.1,17.2-26.1c4.1-10,6.2-20.9,6.2-32.7v-279.5h142.4v469.6h-133.5l-5.3-96.4,25.6-10.6c-6.5,21.8-18.1,41.6-34.9,59.3-16.8,17.7-36.7,31.5-59.7,41.6-23,10-47.5,15-73.4,15Z"/>
          <path class="st0" d="M2845.9,2835.9c-40.1,0-76.2-10.3-108.3-31-32.1-20.6-57.3-49.4-75.6-86.2-18.3-36.8-27.4-78.8-27.4-126s9.1-89.2,27.4-126c18.3-36.8,43.5-65.9,75.6-87.1,32.1-21.2,68.5-31.8,109.2-31.8s41.7,3.2,61.5,9.7c19.7,6.5,37.4,15.3,53.1,26.5,15.6,11.2,28.4,23.9,38.5,38,10,14.2,16.2,29.2,18.6,45.1l-34.5,8v-302.5h142.4v654.4h-132.7l-8-106.1,28.3,5.3c-1.2,14.2-6.5,27.9-15.9,41.1-9.4,13.3-22,25.1-37.6,35.4-15.6,10.3-33.2,18.4-52.6,24.3-19.5,5.9-40.1,8.8-61.9,8.8ZM2881.2,2718.3c21.8,0,40.5-5.2,56.2-15.5,15.6-10.3,27.9-24.9,36.7-43.8,8.8-18.9,13.3-41,13.3-66.3s-4.4-48.3-13.3-67.2c-8.8-18.9-21.1-33.5-36.7-43.8-15.6-10.3-34.4-15.5-56.2-15.5s-39.7,5.2-55.3,15.5c-15.6,10.3-27.9,24.9-36.7,43.8-8.8,18.9-13.3,41.3-13.3,67.2s4.4,47.5,13.3,66.3c8.8,18.9,21.1,33.5,36.7,43.8,15.6,10.3,34,15.5,55.3,15.5Z"/>
          <path class="st0" d="M3325.2,2264.6c-27.1,0-48.2-6.3-63.2-19-15-12.7-22.6-30.8-22.6-54.4s7.7-39.5,23-53.1c15.3-13.6,36.3-20.3,62.8-20.3s46.4,6.3,61.5,19c15,12.7,22.6,30.8,22.6,54.4s-7.5,39.5-22.6,53.1c-15,13.6-35.5,20.3-61.5,20.3ZM3253.5,2827.1v-469.6h142.4v469.6h-142.4Z"/>
          <path class="st0" d="M3749.7,2835.9c-48.3,0-91.7-10.5-130-31.4-38.3-20.9-68.4-49.8-90.2-86.7-21.8-36.8-32.7-78.6-32.7-125.1s10.9-90.1,32.7-126.9c21.8-36.8,51.9-65.7,90.2-86.7,38.3-20.9,81.7-31.4,130-31.4s92.4,10.5,130.4,31.4c38,20.9,67.9,49.8,89.8,86.7,21.8,36.9,32.7,79.1,32.7,126.9s-10.9,88.3-32.7,125.1c-21.8,36.9-51.7,65.7-89.8,86.7-38,20.9-81.5,31.4-130.4,31.4ZM3749.7,2713.9c21.2,0,39.9-5.3,56.2-15.9,16.2-10.6,29-25.1,38.5-43.3,9.4-18.3,13.8-38.9,13.3-61.9.6-24.2-3.8-45.5-13.3-64.1-9.4-18.6-22.3-33-38.5-43.3-16.2-10.3-34.9-15.5-56.2-15.5s-39.2,5.3-55.7,15.9c-16.5,10.6-29.5,25.1-38.9,43.3-9.4,18.3-14.2,39.5-14.2,63.7s4.7,43.6,14.2,61.9c9.4,18.3,22.4,32.7,38.9,43.3,16.5,10.6,35.1,15.9,55.7,15.9Z"/>
          <path class="st0" d="M4145.9,2836.8c-24.2,0-42.9-6.9-56.2-20.8s-19.9-33.5-19.9-58.8,6.9-42.9,20.8-57.9c13.8-15,32.3-22.6,55.3-22.6s43,6.9,56.6,20.8c13.6,13.9,20.3,33.8,20.3,59.7s-7.2,42.8-21.7,57.5c-14.5,14.7-32.9,22.1-55.3,22.1Z"/>
        </g>
      </g>
      <g class="st1">
        <g class="st1">
          <path class="st3" d="M1404.4,2835.9c-61.3,0-113.1-10.8-155.2-32.3-42.2-21.5-78.3-52-108.3-91.5l92-103.5c28.9,39.5,58.1,66,87.6,79.6,29.5,13.6,59.8,20.3,91.1,20.3s30.2-2.1,42.9-6.2c12.7-4.1,22.7-10.2,30.1-18.1,7.4-8,11.1-17.5,11.1-28.7s-2.2-16.8-6.6-23.9c-4.4-7.1-10.5-13.3-18.1-18.6-7.7-5.3-16.5-10.2-26.5-14.6-10-4.4-21.1-8.1-33.2-11.1-12.1-2.9-24.3-5.6-36.7-8-34.2-7.1-63.8-16.4-88.9-27.9-25.1-11.5-46-25.3-62.8-41.6-16.8-16.2-29.3-34.8-37.6-55.7-8.3-20.9-12.4-44.7-12.4-71.2,0-37.7,10.8-70.7,32.3-99,21.5-28.3,50-50.4,85.3-66.3,35.4-15.9,73.7-23.9,115-23.9,60.1,0,108.6,9.6,145.5,28.7,36.8,19.2,66.2,45.5,88,79.2l-93.7,91.1c-18.3-23.6-39.1-41.3-62.3-53.1-23.3-11.8-47.6-17.7-73-17.7s-32.1,2.1-45.1,6.2c-13,4.1-22.9,10.2-29.6,18.1-6.8,8-10.2,17.5-10.2,28.7s2.8,17.8,8.4,25.2c5.6,7.4,13.4,13.7,23.4,19,10,5.3,21.5,9.9,34.5,13.7,13,3.8,26.5,6.9,40.7,9.3,32.4,6.5,61.8,15,88,25.6,26.2,10.6,48.8,23.7,67.7,39.4,18.9,15.6,33.5,33.9,43.8,54.8,10.3,20.9,15.5,45,15.5,72.1,0,42.4-10.3,78.7-31,108.8-20.6,30.1-49.2,53.1-85.8,69-36.6,15.9-78.4,23.9-125.6,23.9Z"/>
          <path class="st3" d="M1701.5,2482.2v-124.7h315.7v124.7h-315.7ZM1784.7,2827.1v-588.1h142.4v588.1h-142.4Z"/>
          <path class="st3" d="M2258.7,2835.9c-34.2,0-63.7-7.5-88.4-22.6s-43.8-36.5-57-64.6c-13.3-28-19.9-61.8-19.9-101.3v-290.1h142.4v268.8c0,28.9,6.9,51.4,20.8,67.7,13.8,16.2,33.2,24.3,57.9,24.3s23.6-1.9,33.6-5.7c10-3.8,18.7-9.4,26.1-16.8s13.1-16.1,17.2-26.1c4.1-10,6.2-20.9,6.2-32.7v-279.5h142.4v469.6h-133.5l-5.3-96.4,25.6-10.6c-6.5,21.8-18.1,41.6-34.9,59.3-16.8,17.7-36.7,31.5-59.7,41.6-23,10-47.5,15-73.4,15Z"/>
          <path class="st3" d="M2845.9,2835.9c-40.1,0-76.2-10.3-108.3-31-32.1-20.6-57.3-49.4-75.6-86.2-18.3-36.8-27.4-78.8-27.4-126s9.1-89.2,27.4-126c18.3-36.8,43.5-65.9,75.6-87.1,32.1-21.2,68.5-31.8,109.2-31.8s41.7,3.2,61.5,9.7c19.7,6.5,37.4,15.3,53.1,26.5,15.6,11.2,28.4,23.9,38.5,38,10,14.2,16.2,29.2,18.6,45.1l-34.5,8v-302.5h142.4v654.4h-132.7l-8-106.1,28.3,5.3c-1.2,14.2-6.5,27.9-15.9,41.1-9.4,13.3-22,25.1-37.6,35.4-15.6,10.3-33.2,18.4-52.6,24.3-19.5,5.9-40.1,8.8-61.9,8.8ZM2881.2,2718.3c21.8,0,40.5-5.2,56.2-15.5,15.6-10.3,27.9-24.9,36.7-43.8,8.8-18.9,13.3-41,13.3-66.3s-4.4-48.3-13.3-67.2c-8.8-18.9-21.1-33.5-36.7-43.8-15.6-10.3-34.4-15.5-56.2-15.5s-39.7,5.2-55.3,15.5c-15.6,10.3-27.9,24.9-36.7,43.8-8.8,18.9-13.3,41.3-13.3,67.2s4.4,47.5,13.3,66.3c8.8,18.9,21.1,33.5,36.7,43.8,15.6,10.3,34,15.5,55.3,15.5Z"/>
          <path class="st3" d="M3325.2,2264.6c-27.1,0-48.2-6.3-63.2-19-15-12.7-22.6-30.8-22.6-54.4s7.7-39.5,23-53.1c15.3-13.6,36.3-20.3,62.8-20.3s46.4,6.3,61.5,19c15,12.7,22.6,30.8,22.6,54.4s-7.5,39.5-22.6,53.1c-15,13.6-35.5,20.3-61.5,20.3ZM3253.5,2827.1v-469.6h142.4v469.6h-142.4Z"/>
          <path class="st3" d="M3749.7,2835.9c-48.3,0-91.7-10.5-130-31.4-38.3-20.9-68.4-49.8-90.2-86.7-21.8-36.8-32.7-78.6-32.7-125.1s10.9-90.1,32.7-126.9c21.8-36.8,51.9-65.7,90.2-86.7,38.3-20.9,81.7-31.4,130-31.4s92.4,10.5,130.4,31.4c38,20.9,67.9,49.8,89.8,86.7,21.8,36.9,32.7,79.1,32.7,126.9s-10.9,88.3-32.7,125.1c-21.8,36.9-51.7,65.7-89.8,86.7-38,20.9-81.5,31.4-130.4,31.4ZM3749.7,2713.9c21.2,0,39.9-5.3,56.2-15.9,16.2-10.6,29-25.1,38.5-43.3,9.4-18.3,13.8-38.9,13.3-61.9.6-24.2-3.8-45.5-13.3-64.1-9.4-18.6-22.3-33-38.5-43.3-16.2-10.3-34.9-15.5-56.2-15.5s-39.2,5.3-55.7,15.9c-16.5,10.6-29.5,25.1-38.9,43.3-9.4,18.3-14.2,39.5-14.2,63.7s4.7,43.6,14.2,61.9c9.4,18.3,22.4,32.7,38.9,43.3,16.5,10.6,35.1,15.9,55.7,15.9Z"/>
          <path class="st3" d="M4145.9,2836.8c-24.2,0-42.9-6.9-56.2-20.8s-19.9-33.5-19.9-58.8,6.9-42.9,20.8-57.9c13.8-15,32.3-22.6,55.3-22.6s43,6.9,56.6,20.8c13.6,13.9,20.3,33.8,20.3,59.7s-7.2,42.8-21.7,57.5c-14.5,14.7-32.9,22.1-55.3,22.1Z"/>
        </g>
      </g>
      <g class="st1">
        <g class="st1">
          <path class="st0" d="M1404.4,2835.9c-61.3,0-113.1-10.8-155.2-32.3-42.2-21.5-78.3-52-108.3-91.5l92-103.5c28.9,39.5,58.1,66,87.6,79.6,29.5,13.6,59.8,20.3,91.1,20.3s30.2-2.1,42.9-6.2c12.7-4.1,22.7-10.2,30.1-18.1,7.4-8,11.1-17.5,11.1-28.7s-2.2-16.8-6.6-23.9c-4.4-7.1-10.5-13.3-18.1-18.6-7.7-5.3-16.5-10.2-26.5-14.6-10-4.4-21.1-8.1-33.2-11.1-12.1-2.9-24.3-5.6-36.7-8-34.2-7.1-63.8-16.4-88.9-27.9-25.1-11.5-46-25.3-62.8-41.6-16.8-16.2-29.3-34.8-37.6-55.7-8.3-20.9-12.4-44.7-12.4-71.2,0-37.7,10.8-70.7,32.3-99,21.5-28.3,50-50.4,85.3-66.3,35.4-15.9,73.7-23.9,115-23.9,60.1,0,108.6,9.6,145.5,28.7,36.8,19.2,66.2,45.5,88,79.2l-93.7,91.1c-18.3-23.6-39.1-41.3-62.3-53.1-23.3-11.8-47.6-17.7-73-17.7s-32.1,2.1-45.1,6.2c-13,4.1-22.9,10.2-29.6,18.1-6.8,8-10.2,17.5-10.2,28.7s2.8,17.8,8.4,25.2c5.6,7.4,13.4,13.7,23.4,19,10,5.3,21.5,9.9,34.5,13.7,13,3.8,26.5,6.9,40.7,9.3,32.4,6.5,61.8,15,88,25.6,26.2,10.6,48.8,23.7,67.7,39.4,18.9,15.6,33.5,33.9,43.8,54.8,10.3,20.9,15.5,45,15.5,72.1,0,42.4-10.3,78.7-31,108.8-20.6,30.1-49.2,53.1-85.8,69-36.6,15.9-78.4,23.9-125.6,23.9Z"/>
          <path class="st0" d="M1701.5,2482.2v-124.7h315.7v124.7h-315.7ZM1784.7,2827.1v-588.1h142.4v588.1h-142.4Z"/>
          <path class="st0" d="M2258.7,2835.9c-34.2,0-63.7-7.5-88.4-22.6s-43.8-36.5-57-64.6c-13.3-28-19.9-61.8-19.9-101.3v-290.1h142.4v268.8c0,28.9,6.9,51.4,20.8,67.7,13.8,16.2,33.2,24.3,57.9,24.3s23.6-1.9,33.6-5.7c10-3.8,18.7-9.4,26.1-16.8s13.1-16.1,17.2-26.1c4.1-10,6.2-20.9,6.2-32.7v-279.5h142.4v469.6h-133.5l-5.3-96.4,25.6-10.6c-6.5,21.8-18.1,41.6-34.9,59.3-16.8,17.7-36.7,31.5-59.7,41.6-23,10-47.5,15-73.4,15Z"/>
          <path class="st0" d="M2845.9,2835.9c-40.1,0-76.2-10.3-108.3-31-32.1-20.6-57.3-49.4-75.6-86.2-18.3-36.8-27.4-78.8-27.4-126s9.1-89.2,27.4-126c18.3-36.8,43.5-65.9,75.6-87.1,32.1-21.2,68.5-31.8,109.2-31.8s41.7,3.2,61.5,9.7c19.7,6.5,37.4,15.3,53.1,26.5,15.6,11.2,28.4,23.9,38.5,38,10,14.2,16.2,29.2,18.6,45.1l-34.5,8v-302.5h142.4v654.4h-132.7l-8-106.1,28.3,5.3c-1.2,14.2-6.5,27.9-15.9,41.1-9.4,13.3-22,25.1-37.6,35.4-15.6,10.3-33.2,18.4-52.6,24.3-19.5,5.9-40.1,8.8-61.9,8.8ZM2881.2,2718.3c21.8,0,40.5-5.2,56.2-15.5,15.6-10.3,27.9-24.9,36.7-43.8,8.8-18.9,13.3-41,13.3-66.3s-4.4-48.3-13.3-67.2c-8.8-18.9-21.1-33.5-36.7-43.8-15.6-10.3-34.4-15.5-56.2-15.5s-39.7,5.2-55.3,15.5c-15.6,10.3-27.9,24.9-36.7,43.8-8.8,18.9-13.3,41.3-13.3,67.2s4.4,47.5,13.3,66.3c8.8,18.9,21.1,33.5,36.7,43.8,15.6,10.3,34,15.5,55.3,15.5Z"/>
          <path class="st0" d="M3325.2,2264.6c-27.1,0-48.2-6.3-63.2-19-15-12.7-22.6-30.8-22.6-54.4s7.7-39.5,23-53.1c15.3-13.6,36.3-20.3,62.8-20.3s46.4,6.3,61.5,19c15,12.7,22.6,30.8,22.6,54.4s-7.5,39.5-22.6,53.1c-15,13.6-35.5,20.3-61.5,20.3ZM3253.5,2827.1v-469.6h142.4v469.6h-142.4Z"/>
          <path class="st0" d="M3749.7,2835.9c-48.3,0-91.7-10.5-130-31.4-38.3-20.9-68.4-49.8-90.2-86.7-21.8-36.8-32.7-78.6-32.7-125.1s10.9-90.1,32.7-126.9c21.8-36.8,51.9-65.7,90.2-86.7,38.3-20.9,81.7-31.4,130-31.4s92.4,10.5,130.4,31.4c38,20.9,67.9,49.8,89.8,86.7,21.8,36.9,32.7,79.1,32.7,126.9s-10.9,88.3-32.7,125.1c-21.8,36.9-51.7,65.7-89.8,86.7-38,20.9-81.5,31.4-130.4,31.4ZM3749.7,2713.9c21.2,0,39.9-5.3,56.2-15.9,16.2-10.6,29-25.1,38.5-43.3,9.4-18.3,13.8-38.9,13.3-61.9.6-24.2-3.8-45.5-13.3-64.1-9.4-18.6-22.3-33-38.5-43.3-16.2-10.3-34.9-15.5-56.2-15.5s-39.2,5.3-55.7,15.9c-16.5,10.6-29.5,25.1-38.9,43.3-9.4,18.3-14.2,39.5-14.2,63.7s4.7,43.6,14.2,61.9c9.4,18.3,22.4,32.7,38.9,43.3,16.5,10.6,35.1,15.9,55.7,15.9Z"/>
          <path class="st0" d="M4145.9,2836.8c-24.2,0-42.9-6.9-56.2-20.8s-19.9-33.5-19.9-58.8,6.9-42.9,20.8-57.9c13.8-15,32.3-22.6,55.3-22.6s43,6.9,56.6,20.8c13.6,13.9,20.3,33.8,20.3,59.7s-7.2,42.8-21.7,57.5c-14.5,14.7-32.9,22.1-55.3,22.1Z"/>
        </g>
      </g>
    </g>
  </g>
</svg>