<?xml version="1.0" encoding="UTF-8"?>
<svg id="Layer_1" data-name="Layer 1" xmlns="http://www.w3.org/2000/svg" viewBox="0 0 5067 5139">
  <defs>
    <style>
      .cls-1, .cls-2 {
        fill: #fff;
      }

      .cls-3 {
        fill: #180e44;
      }

      .cls-3, .cls-2 {
        font-family: ReadexPro-Bold, 'Readex Pro';
        font-size: 884.36px;
        font-weight: 700;
      }

      .cls-4 {
        fill: #a89cff;
      }
    </style>
  </defs>
  <g>
    <path class="cls-1" d="M3917.85,2012.5c1.81-1.13,3.35-2.52,4.64-4.16,1.29-1.65,2.29-3.51,3-5.59.71-2.08,1.06-4.35,1.06-6.8,0-3.06-.53-5.86-1.6-8.37-1.06-2.52-2.55-4.67-4.47-6.46-1.92-1.79-4.19-3.18-6.82-4.16-2.63-.98-5.52-1.48-8.68-1.48h-27.85v65.81h7.55v-25.12h18.46c.32,0,.66-.02,1.02-.05l15.02,25.16h8.81l-16.15-26.28c2.19-.55,4.19-1.39,5.99-2.52ZM3904.85,2009.65h-20.16v-27.29h20.01c2.04,0,3.92.34,5.67,1.02,1.74.68,3.25,1.62,4.53,2.83,1.28,1.21,2.28,2.65,3.01,4.31.73,1.66,1.09,3.49,1.09,5.49s-.36,3.89-1.07,5.57c-.71,1.68-1.7,3.11-2.96,4.31-1.26,1.19-2.75,2.12-4.48,2.78-1.73.66-3.61.99-5.65.99Z"/>
    <path class="cls-1" d="M3899.31,1944.73c-35.75,0-64.84,29.09-64.84,64.85s29.09,64.84,64.84,64.84,64.84-29.09,64.84-64.84-29.09-64.85-64.84-64.85ZM3953.53,2009.58c0,29.9-24.32,54.22-54.22,54.22s-54.22-24.32-54.22-54.22,24.32-54.23,54.22-54.23,54.22,24.32,54.22,54.23Z"/>
  </g>
  <g>
    <path class="cls-4" d="M3311.39,3050.4c-62.22-183.93-292.84-257.16-606.48-356.76-170.02-53.99-182.38-34.13-355.67-98.11-172.28-63.61-340.91-144.57-466.45-282.23-89.16-97.77-127.94-208.82-99.76-339.19,38.79-179.48,215.91-274.1,394.59-245.93,0,0,152.82,15.83,422.08,166.45,4.94,2.76,21.9,12.53,45.12,13.46,19.7.79,34.99-5.15,41.49-8.06,28.21-12.64,41.6-35.8,45.81-43.9,0,0,15.1-28.43,12.58-65.56-3.28-48.32-68.89-169.67-229.95-256.14-137.21-73.67-295.56-92.77-448.32-69.17-79.73,12.32-164.18,27.48-232.26,73.59-33.79,22.89-60.75,52.25-79.21,88.53-18.09,35.53-26.97,77.15-67.14,94.63-34.55,15.03-84.08,12.26-114.38-16.8-30.22-28.99-28.29-71.7-27.86-79.2,1.37-23.74,10.83-47.16,28.5-67.12,24.46-27.63,55.64-47.44,90.94-61.97,64.17-26.42,125.3-49.98,193.04-67.59,186.08-48.38,381.69-53.16,567.63-1.7,203.05,56.19,387.11,166.26,533.84,315.93,82.82,84.48,175.42,222.64,126.14,341.01-23.96,57.54-66.14,102.12-126.24,115.59-139.55,31.29-309.31-101.81-405.9-190.64-46.03-42.34-137.15-118.9-199.19-72.37-14.4,10.8-25.73,35.24-26.26,57.36-1.34,55.56,23.49,103.21,59.39,145.82,56.37,66.91,129.41,111.63,209.59,145.9,77.07,32.94,154.47,47.52,235.85,65.93,448.71,101.47,758.87,614.02,551.33,1047.86-152.38,318.54-569.45,382.92-883.11,332.8-70.37-11.24-139.54-25.97-207.94-46.31-291.36-86.63-555.75-251.89-780.02-455.05-208.01-188.42-438.25-430-433.09-730.57,2.25-131.16,71.11-270.7,196.42-324.28,125.36-53.6,245.62,1.34,267.08,11.14,129.28,59.06,188.06,182.64,258.69,331.12,44.23,92.99,66.25,166.42,72.43,186.25,100.09,321.24,360.29,610.71,658.71,761.64,167.99,84.96,422.11,164.46,595.28,57.89,155.74-95.84,236.68-314.66,182.69-474.24Z"/>
    <g>
      <text class="cls-2" transform="translate(1121.3894 2827.0957)"><tspan x="0" y="0">Studio.</tspan></text>
      <text class="cls-3" transform="translate(1121.3894 2827.0957)"><tspan x="0" y="0">Studio.</tspan></text>
      <text class="cls-2" transform="translate(1121.3894 2827.0957)"><tspan x="0" y="0">Studio.</tspan></text>
    </g>
  </g>
</svg>
